<svg xmlns="http://www.w3.org/2000/svg" width="1200" height="720" viewBox="0 0 1200 720" role="img" aria-label="AssetDesk preview">
  <defs>
    <linearGradient id="bg" x1="0" y1="0" x2="1" y2="1">
      <stop offset="0" stop-color="#0a0a0f" />
      <stop offset="1" stop-color="#141421" />
    </linearGradient>
    <linearGradient id="accent" x1="0" y1="0" x2="1" y2="0">
      <stop offset="0" stop-color="#38bdf8" />
      <stop offset="1" stop-color="#00ff88" />
    </linearGradient>
  </defs>

  <rect width="1200" height="720" fill="url(#bg)" />
  <rect x="60" y="60" width="1080" height="600" rx="20" fill="#10101a" stroke="#243046" />

  <rect x="60" y="60" width="1080" height="52" rx="20" fill="#171722" />
  <text x="100" y="92" fill="#94a3b8" font-family="JetBrains Mono, monospace" font-size="14">AssetDesk</text>

  <rect x="100" y="140" width="260" height="520" rx="16" fill="#111827" stroke="#22324a" />
  <rect x="130" y="180" width="200" height="36" rx="10" fill="#172033" />
  <rect x="130" y="230" width="200" height="36" rx="10" fill="#0f1729" />
  <rect x="130" y="280" width="200" height="36" rx="10" fill="#0f1729" />
  <rect x="130" y="330" width="200" height="36" rx="10" fill="#0f1729" />

  <rect x="390" y="140" width="720" height="120" rx="16" fill="#121a2a" stroke="#22324a" />
  <rect x="420" y="175" width="180" height="12" rx="6" fill="#233046" />
  <rect x="420" y="195" width="120" height="12" rx="6" fill="#233046" />
  <rect x="820" y="170" width="260" height="30" rx="12" fill="url(#accent)" />

  <rect x="390" y="280" width="720" height="170" rx="16" fill="#111827" stroke="#22324a" />
  <rect x="420" y="320" width="650" height="38" rx="10" fill="#0f1729" stroke="#1e293b" />
  <rect x="420" y="370" width="650" height="38" rx="10" fill="#0f1729" stroke="#1e293b" />
  <rect x="420" y="420" width="650" height="38" rx="10" fill="#0f1729" stroke="#1e293b" />

  <rect x="390" y="470" width="720" height="170" rx="16" fill="#111827" stroke="#22324a" />
  <rect x="420" y="510" width="650" height="38" rx="10" fill="#0f1729" stroke="#1e293b" />
  <rect x="420" y="560" width="650" height="38" rx="10" fill="#0f1729" stroke="#1e293b" />
</svg>
