<svg xmlns="http://www.w3.org/2000/svg" width="1200" height="720" viewBox="0 0 1200 720" role="img" aria-label="SystemMonitor RMM dashboard preview">
  <defs>
    <linearGradient id="bg" x1="0" y1="0" x2="1" y2="1">
      <stop offset="0" stop-color="#0a0a0f" />
      <stop offset="1" stop-color="#15151f" />
    </linearGradient>
    <linearGradient id="accent" x1="0" y1="0" x2="1" y2="0">
      <stop offset="0" stop-color="#00ff88" />
      <stop offset="1" stop-color="#a78bfa" />
    </linearGradient>
  </defs>

  <rect width="1200" height="720" fill="url(#bg)" />
  <rect x="60" y="60" width="1080" height="600" rx="22" fill="#11111b" stroke="#1e293b" />

  <rect x="60" y="60" width="1080" height="52" rx="22" fill="#161626" />
  <circle cx="94" cy="86" r="6" fill="#ff5f57" />
  <circle cx="114" cy="86" r="6" fill="#febc2e" />
  <circle cx="134" cy="86" r="6" fill="#28c840" />
  <text x="170" y="92" fill="#94a3b8" font-family="JetBrains Mono, monospace" font-size="14">~/projects/systemmonitor</text>

  <text x="100" y="170" fill="#00ff88" font-family="JetBrains Mono, monospace" font-size="26">SystemMonitor</text>
  <text x="100" y="205" fill="#a78bfa" font-family="JetBrains Mono, monospace" font-size="14">RMM Control</text>

  <rect x="100" y="250" width="320" height="120" rx="12" fill="#151522" stroke="#1e293b" />
  <rect x="440" y="250" width="320" height="120" rx="12" fill="#151522" stroke="#1e293b" />
  <rect x="780" y="250" width="300" height="120" rx="12" fill="#151522" stroke="#1e293b" />

  <rect x="120" y="280" width="140" height="8" rx="4" fill="#1e293b" />
  <rect x="120" y="300" width="200" height="8" rx="4" fill="#1e293b" />
  <rect x="120" y="320" width="180" height="8" rx="4" fill="#1e293b" />

  <rect x="460" y="280" width="180" height="8" rx="4" fill="#1e293b" />
  <rect x="460" y="300" width="220" height="8" rx="4" fill="#1e293b" />
  <rect x="460" y="320" width="160" height="8" rx="4" fill="#1e293b" />

  <rect x="800" y="280" width="140" height="8" rx="4" fill="#1e293b" />
  <rect x="800" y="300" width="200" height="8" rx="4" fill="#1e293b" />
  <rect x="800" y="320" width="160" height="8" rx="4" fill="#1e293b" />

  <rect x="100" y="410" width="980" height="200" rx="16" fill="#12121b" stroke="#1e293b" />
  <rect x="130" y="450" width="220" height="10" rx="5" fill="#1e293b" />
  <rect x="130" y="475" width="300" height="10" rx="5" fill="#1e293b" />
  <rect x="130" y="500" width="260" height="10" rx="5" fill="#1e293b" />

  <rect x="520" y="450" width="520" height="120" rx="12" fill="#151522" stroke="#1e293b" />
  <path d="M560 540 L650 500 L740 520 L840 480 L920 520" fill="none" stroke="url(#accent)" stroke-width="3" />
  <circle cx="650" cy="500" r="4" fill="#00ff88" />
  <circle cx="740" cy="520" r="4" fill="#a78bfa" />
  <circle cx="840" cy="480" r="4" fill="#00ff88" />

  <text x="100" y="640" fill="#64748b" font-family="JetBrains Mono, monospace" font-size="14">React + Node + PostgreSQL + PowerShell</text>
</svg>
